<svg width="453" height="922" viewBox="0 0 453 922" fill="none" xmlns="http://www.w3.org/2000/svg">
<rect width="453" height="922" fill="#1E1E1E"/>
<path d="M0 171C0 169.895 0.895431 169 2 169H5V200H2C0.89543 200 0 199.105 0 198V171Z" fill="#AFAA8D"/>
<path opacity="0.4" d="M0 171C0 169.895 0.895431 169 2 169H5V200H2C0.89543 200 0 199.105 0 198V171Z" fill="url(#paint0_linear_0_1)"/>
<path opacity="0.4" d="M0 171C0 169.895 0.895431 169 2 169H5V200H2C0.89543 200 0 199.105 0 198V171Z" fill="url(#paint1_linear_0_1)"/>
<path opacity="0.4" d="M0 171C0 169.895 0.895431 169 2 169H5V200H2C0.89543 200 0 199.105 0 198V171Z" fill="url(#paint2_linear_0_1)"/>
<g filter="url(#filter0_f_0_1)">
<path d="M1 170.5C1 170.224 1.22386 170 1.5 170V170C1.77614 170 2 170.224 2 170.5V172H1V170.5Z" fill="white"/>
</g>
<g filter="url(#filter1_f_0_1)">
<path d="M1 172H2V197.5C2 197.776 1.77614 198 1.5 198V198C1.22386 198 1 197.776 1 197.5V172Z" fill="white" fill-opacity="0.8"/>
</g>
<path d="M0 232C0 230.895 0.895431 230 2 230H5V294H2C0.89543 294 0 293.105 0 292V232Z" fill="#AFAA8D"/>
<path opacity="0.4" d="M0 232C0 230.895 0.895431 230 2 230H5V294H2C0.89543 294 0 293.105 0 292V232Z" fill="url(#paint3_linear_0_1)"/>
<path opacity="0.4" d="M0 232C0 230.895 0.895431 230 2 230H5V294H2C0.89543 294 0 293.105 0 292V232Z" fill="url(#paint4_linear_0_1)"/>
<path opacity="0.4" d="M0 232C0 230.895 0.895431 230 2 230H5V294H2C0.89543 294 0 293.105 0 292V232Z" fill="url(#paint5_linear_0_1)"/>
<g filter="url(#filter2_f_0_1)">
<path d="M1 232.5C1 232.224 1.22386 232 1.5 232V232C1.77614 232 2 232.224 2 232.5V234H1V232.5Z" fill="white"/>
</g>
<g filter="url(#filter3_f_0_1)">
<path d="M1 234H2V291.5C2 291.776 1.77614 292 1.5 292V292C1.22386 292 1 291.776 1 291.5V234Z" fill="white" fill-opacity="0.8"/>
</g>
<path d="M0 312C0 310.895 0.895431 310 2 310H5V374H2C0.89543 374 0 373.105 0 372V312Z" fill="#AFAA8D"/>
<path opacity="0.4" d="M0 312C0 310.895 0.895431 310 2 310H5V374H2C0.89543 374 0 373.105 0 372V312Z" fill="url(#paint6_linear_0_1)"/>
<path opacity="0.4" d="M0 312C0 310.895 0.895431 310 2 310H5V374H2C0.89543 374 0 373.105 0 372V312Z" fill="url(#paint7_linear_0_1)"/>
<path opacity="0.4" d="M0 312C0 310.895 0.895431 310 2 310H5V374H2C0.89543 374 0 373.105 0 372V312Z" fill="url(#paint8_linear_0_1)"/>
<g filter="url(#filter4_f_0_1)">
<path d="M1 312.5C1 312.224 1.22386 312 1.5 312V312C1.77614 312 2 312.224 2 312.5V314H1V312.5Z" fill="white"/>
</g>
<g filter="url(#filter5_f_0_1)">
<path d="M1 314H2V371.5C2 371.776 1.77614 372 1.5 372V372C1.22386 372 1 371.776 1 371.5V314Z" fill="white" fill-opacity="0.8"/>
</g>
<path d="M453 254C453 252.895 452.105 252 451 252H448V351H451C452.105 351 453 350.105 453 349V254Z" fill="#AFAA8D"/>
<path opacity="0.4" d="M453 254C453 252.895 452.105 252 451 252H448V351H451C452.105 351 453 350.105 453 349V254Z" fill="url(#paint9_linear_0_1)"/>
<path opacity="0.4" d="M453 254C453 252.895 452.105 252 451 252H448V351H451C452.105 351 453 350.105 453 349V254Z" fill="url(#paint10_linear_0_1)"/>
<path opacity="0.4" d="M453 254C453 252.895 452.105 252 451 252H448V351H451C452.105 351 453 350.105 453 349V254Z" fill="url(#paint11_linear_0_1)"/>
<g filter="url(#filter6_f_0_1)">
<path d="M452 254.5C452 254.224 451.776 254 451.5 254V254C451.224 254 451 254.224 451 254.5V256H452V254.5Z" fill="white"/>
</g>
<g filter="url(#filter7_f_0_1)">
<path d="M452 256H451V348.5C451 348.776 451.224 349 451.5 349V349C451.776 349 452 348.776 452 348.5V256Z" fill="white" fill-opacity="0.8"/>
</g>
<g clip-path="url(#clip0_0_1)">
<rect x="3" width="447.329" height="922" rx="75" fill="#E7E3BF"/>
<g filter="url(#filter8_f_0_1)">
<rect x="4.64057" y="1.64057" width="444.047" height="918.719" rx="73.3594" stroke="#675F4C" stroke-width="3.28114"/>
</g>
<g filter="url(#filter9_f_0_1)">
<rect x="3.54686" y="0.546856" width="446.235" height="920.906" rx="74.4531" stroke="#524B40" stroke-width="1.09371"/>
</g>
<g filter="url(#filter10_f_0_1)">
<rect x="9.54686" y="6.54686" width="434.906" height="908.906" rx="68.4531" stroke="white" stroke-width="1.09371"/>
</g>
</g>
<g clip-path="url(#clip1_0_1)">
<rect x="10" y="7.00002" width="434.204" height="907.782" rx="68" fill="#000100"/>
<g filter="url(#filter11_f_0_1)">
<rect x="12.1874" y="9.18745" width="429.829" height="903.407" rx="65.8126" stroke="url(#paint12_radial_0_1)" stroke-width="4.37485"/>
</g>
</g>
<g clip-path="url(#clip2_0_1)">
<rect x="20" y="17" width="414" height="888" rx="59" fill="#DAE2D3"/>
<rect x="19" y="15" width="415" height="893" fill="url(#paint13_linear_0_1)"/>
</g>
<rect x="153.932" y="887.001" width="144.37" height="5.46856" rx="2.73428" fill="white"/>
<path opacity="0.35" d="M371.581 44.3257H390.174C392.272 44.3257 393.972 46.026 393.972 48.1235V53.5923C393.972 55.6896 392.272 57.3901 390.174 57.3901H371.581C369.484 57.3901 367.784 55.6896 367.784 53.5923V48.1235C367.784 46.026 369.484 44.3257 371.581 44.3257Z" stroke="black" stroke-width="1.15396"/>
<path opacity="0.4" d="M395.643 49.2171V53.8329C396.572 53.442 397.175 52.5325 397.175 51.525C397.175 50.5174 396.572 49.608 395.643 49.2171" fill="black"/>
<path d="M369.394 48.1233C369.394 46.9153 370.373 45.9359 371.581 45.9359H390.174C391.382 45.9359 392.362 46.9153 392.362 48.1233V53.5919C392.362 54.8 391.382 55.7793 390.174 55.7793H371.581C370.373 55.7793 369.394 54.8 369.394 53.5919V48.1233Z" fill="black"/>
<path d="M348.74 53.685C350.292 52.3446 352.567 52.3446 354.119 53.685C354.197 53.757 354.243 53.859 354.245 53.9663C354.248 54.0738 354.206 54.1781 354.131 54.2534L351.699 56.7583C351.628 56.8317 351.531 56.8734 351.43 56.8735C351.329 56.8735 351.231 56.8319 351.159 56.7583L348.728 54.2534C348.653 54.178 348.611 54.0738 348.614 53.9663C348.616 53.8589 348.661 53.757 348.74 53.685ZM345.451 50.5971C348.797 47.4203 353.979 47.4203 357.324 50.5971C357.4 50.6715 357.443 50.7733 357.445 50.8803C357.446 50.9875 357.404 51.0914 357.33 51.1674L355.925 52.6167C355.78 52.7647 355.545 52.7676 355.397 52.6235C354.298 51.6082 352.869 51.0463 351.387 51.0464C349.906 51.047 348.477 51.6087 347.379 52.6235C347.231 52.7676 346.997 52.7647 346.852 52.6167L345.447 51.1674C345.372 51.0915 345.331 50.9876 345.332 50.8803C345.333 50.7735 345.376 50.6715 345.451 50.5971ZM342.168 47.5132C347.3 42.4934 355.396 42.4933 360.528 47.5132C360.602 47.5877 360.643 47.69 360.644 47.7964C360.644 47.9026 360.604 48.0051 360.531 48.0805L359.123 49.5298C358.978 49.6785 358.743 49.6801 358.596 49.5337C356.641 47.6363 354.046 46.5787 351.348 46.5786C348.65 46.5786 346.055 47.6363 344.1 49.5337C343.953 49.6804 343.717 49.6787 343.573 49.5298L342.164 48.0805C342.091 48.0051 342.05 47.9026 342.051 47.7964C342.052 47.69 342.094 47.5877 342.168 47.5132Z" fill="black"/>
<path d="M325.645 47.0297C325.645 46.4256 326.135 45.9359 326.739 45.9359H327.833C328.437 45.9359 328.926 46.4256 328.926 47.0297V55.7794C328.926 56.3834 328.437 56.8731 327.833 56.8731H326.739C326.135 56.8731 325.645 56.3834 325.645 55.7794V47.0297Z" fill="black"/>
<path d="M331.114 44.8422C331.114 44.2382 331.604 43.7485 332.208 43.7485H333.301C333.905 43.7485 334.395 44.2382 334.395 44.8422V55.7794C334.395 56.3834 333.905 56.8731 333.301 56.8731H332.208C331.604 56.8731 331.114 56.3834 331.114 55.7794V44.8422Z" fill="black"/>
<path d="M320.177 50.8577C320.177 50.2536 320.666 49.7639 321.27 49.7639H322.364C322.968 49.7639 323.458 50.2536 323.458 50.8577V55.7794C323.458 56.3834 322.968 56.8731 322.364 56.8731H321.27C320.666 56.8731 320.177 56.3834 320.177 55.7794V50.8577Z" fill="black"/>
<path d="M314.708 53.5919C314.708 52.9879 315.198 52.4982 315.802 52.4982H316.896C317.5 52.4982 317.989 52.9879 317.989 53.5919V55.7794C317.989 56.3834 317.5 56.8731 316.896 56.8731H315.802C315.198 56.8731 314.708 56.3834 314.708 55.7794V53.5919Z" fill="black"/>
<path d="M83.7583 44.9463C86.5545 44.9463 88.9876 46.9345 88.9876 51.6554V51.6736C88.9876 56.0858 86.9993 58.7005 83.7038 58.7005C81.2979 58.7005 79.5004 57.2751 79.0827 55.2688L79.0646 55.1689H81.3706L81.3978 55.2597C81.7428 56.1766 82.5508 56.7758 83.7038 56.7758C85.7828 56.7758 86.6634 54.7422 86.7633 52.2365C86.7633 52.1366 86.7724 52.0368 86.7724 51.9369H86.5908C86.1096 52.9719 84.9657 53.8888 83.1681 53.8888C80.6534 53.8888 78.8921 52.0549 78.8921 49.5674V49.5492C78.8921 46.8891 80.9166 44.9463 83.7583 44.9463ZM83.7492 52.0912C85.229 52.0912 86.3638 51.0199 86.3638 49.5401V49.522C86.3638 48.024 85.229 46.8528 83.7764 46.8528C82.3329 46.8528 81.1799 48.0058 81.1799 49.4675V49.4856C81.1799 51.0018 82.2603 52.0912 83.7492 52.0912ZM92.2343 49.8851C91.4082 49.8851 90.7908 49.2496 90.7908 48.4507C90.7908 47.6427 91.4082 47.0162 92.2343 47.0162C93.0696 47.0162 93.6778 47.6427 93.6778 48.4507C93.6778 49.2496 93.0696 49.8851 92.2343 49.8851ZM92.2343 56.6215C91.4082 56.6215 90.7908 55.9951 90.7908 55.1871C90.7908 54.379 91.4082 53.7526 92.2343 53.7526C93.0696 53.7526 93.6778 54.379 93.6778 55.1871C93.6778 55.9951 93.0696 56.6215 92.2343 56.6215ZM101.836 58.3737V55.8589H95.4266V53.9433C97.1243 50.9927 98.9854 47.9786 100.765 45.2731H104.079V53.9251H105.84V55.8589H104.079V58.3737H101.836ZM97.6055 53.9796H101.872V47.1433H101.736C100.393 49.1951 98.8765 51.6191 97.6055 53.8434V53.9796ZM110.394 58.3737V47.5791H110.24L106.98 49.8851V47.679L110.403 45.2731H112.736V58.3737H110.394Z" fill="#010101"/>
<rect x="161" y="33" width="120" height="33" rx="16.5" fill="#030303"/>
<circle cx="261.5" cy="49.5" r="10.5" fill="#0E0B0F"/>
<circle cx="261.392" cy="49.3915" r="5.3915" fill="#161424"/>
<circle cx="261.392" cy="49.3915" r="3.2349" fill="#0F0F2A"/>
<circle cx="261.392" cy="48.3132" r="1.0783" fill="#393752"/>
<circle cx="238.946" cy="49.1566" r="2.1566" fill="#30B94D"/>
<defs>
<filter id="filter0_f_0_1" x="0" y="169" width="3" height="4" filterUnits="userSpaceOnUse" color-interpolation-filters="sRGB">
<feFlood flood-opacity="0" result="BackgroundImageFix"/>
<feBlend mode="normal" in="SourceGraphic" in2="BackgroundImageFix" result="shape"/>
<feGaussianBlur stdDeviation="0.5" result="effect1_foregroundBlur_0_1"/>
</filter>
<filter id="filter1_f_0_1" x="0" y="171" width="3" height="28" filterUnits="userSpaceOnUse" color-interpolation-filters="sRGB">
<feFlood flood-opacity="0" result="BackgroundImageFix"/>
<feBlend mode="normal" in="SourceGraphic" in2="BackgroundImageFix" result="shape"/>
<feGaussianBlur stdDeviation="0.5" result="effect1_foregroundBlur_0_1"/>
</filter>
<filter id="filter2_f_0_1" x="0" y="231" width="3" height="4" filterUnits="userSpaceOnUse" color-interpolation-filters="sRGB">
<feFlood flood-opacity="0" result="BackgroundImageFix"/>
<feBlend mode="normal" in="SourceGraphic" in2="BackgroundImageFix" result="shape"/>
<feGaussianBlur stdDeviation="0.5" result="effect1_foregroundBlur_0_1"/>
</filter>
<filter id="filter3_f_0_1" x="0" y="233" width="3" height="60" filterUnits="userSpaceOnUse" color-interpolation-filters="sRGB">
<feFlood flood-opacity="0" result="BackgroundImageFix"/>
<feBlend mode="normal" in="SourceGraphic" in2="BackgroundImageFix" result="shape"/>
<feGaussianBlur stdDeviation="0.5" result="effect1_foregroundBlur_0_1"/>
</filter>
<filter id="filter4_f_0_1" x="0" y="311" width="3" height="4" filterUnits="userSpaceOnUse" color-interpolation-filters="sRGB">
<feFlood flood-opacity="0" result="BackgroundImageFix"/>
<feBlend mode="normal" in="SourceGraphic" in2="BackgroundImageFix" result="shape"/>
<feGaussianBlur stdDeviation="0.5" result="effect1_foregroundBlur_0_1"/>
</filter>
<filter id="filter5_f_0_1" x="0" y="313" width="3" height="60" filterUnits="userSpaceOnUse" color-interpolation-filters="sRGB">
<feFlood flood-opacity="0" result="BackgroundImageFix"/>
<feBlend mode="normal" in="SourceGraphic" in2="BackgroundImageFix" result="shape"/>
<feGaussianBlur stdDeviation="0.5" result="effect1_foregroundBlur_0_1"/>
</filter>
<filter id="filter6_f_0_1" x="450" y="253" width="3" height="4" filterUnits="userSpaceOnUse" color-interpolation-filters="sRGB">
<feFlood flood-opacity="0" result="BackgroundImageFix"/>
<feBlend mode="normal" in="SourceGraphic" in2="BackgroundImageFix" result="shape"/>
<feGaussianBlur stdDeviation="0.5" result="effect1_foregroundBlur_0_1"/>
</filter>
<filter id="filter7_f_0_1" x="450" y="255" width="3" height="95" filterUnits="userSpaceOnUse" color-interpolation-filters="sRGB">
<feFlood flood-opacity="0" result="BackgroundImageFix"/>
<feBlend mode="normal" in="SourceGraphic" in2="BackgroundImageFix" result="shape"/>
<feGaussianBlur stdDeviation="0.5" result="effect1_foregroundBlur_0_1"/>
</filter>
<filter id="filter8_f_0_1" x="-1.37485" y="-4.37485" width="456.078" height="930.75" filterUnits="userSpaceOnUse" color-interpolation-filters="sRGB">
<feFlood flood-opacity="0" result="BackgroundImageFix"/>
<feBlend mode="normal" in="SourceGraphic" in2="BackgroundImageFix" result="shape"/>
<feGaussianBlur stdDeviation="2.18743" result="effect1_foregroundBlur_0_1"/>
</filter>
<filter id="filter9_f_0_1" x="0.812574" y="-2.18743" width="451.703" height="926.375" filterUnits="userSpaceOnUse" color-interpolation-filters="sRGB">
<feFlood flood-opacity="0" result="BackgroundImageFix"/>
<feBlend mode="normal" in="SourceGraphic" in2="BackgroundImageFix" result="shape"/>
<feGaussianBlur stdDeviation="1.09371" result="effect1_foregroundBlur_0_1"/>
</filter>
<filter id="filter10_f_0_1" x="6.81257" y="3.81257" width="440.375" height="914.375" filterUnits="userSpaceOnUse" color-interpolation-filters="sRGB">
<feFlood flood-opacity="0" result="BackgroundImageFix"/>
<feBlend mode="normal" in="SourceGraphic" in2="BackgroundImageFix" result="shape"/>
<feGaussianBlur stdDeviation="1.09371" result="effect1_foregroundBlur_0_1"/>
</filter>
<filter id="filter11_f_0_1" x="2.34401" y="-0.655969" width="449.516" height="923.094" filterUnits="userSpaceOnUse" color-interpolation-filters="sRGB">
<feFlood flood-opacity="0" result="BackgroundImageFix"/>
<feBlend mode="normal" in="SourceGraphic" in2="BackgroundImageFix" result="shape"/>
<feGaussianBlur stdDeviation="3.828" result="effect1_foregroundBlur_0_1"/>
</filter>
<linearGradient id="paint0_linear_0_1" x1="2.5" y1="169" x2="2.5" y2="172.263" gradientUnits="userSpaceOnUse">
<stop/>
<stop offset="1" stop-opacity="0"/>
</linearGradient>
<linearGradient id="paint1_linear_0_1" x1="5" y1="169" x2="1.5" y2="169" gradientUnits="userSpaceOnUse">
<stop/>
<stop offset="1" stop-color="#AEAEAE" stop-opacity="0"/>
</linearGradient>
<linearGradient id="paint2_linear_0_1" x1="2.5" y1="194.697" x2="2.5" y2="200" gradientUnits="userSpaceOnUse">
<stop stop-opacity="0"/>
<stop offset="1"/>
</linearGradient>
<linearGradient id="paint3_linear_0_1" x1="2.5" y1="230" x2="2.5" y2="234" gradientUnits="userSpaceOnUse">
<stop/>
<stop offset="1" stop-opacity="0"/>
</linearGradient>
<linearGradient id="paint4_linear_0_1" x1="5" y1="230" x2="1.5" y2="230" gradientUnits="userSpaceOnUse">
<stop/>
<stop offset="1" stop-color="#AEAEAE" stop-opacity="0"/>
</linearGradient>
<linearGradient id="paint5_linear_0_1" x1="2.5" y1="288.5" x2="2.5" y2="294" gradientUnits="userSpaceOnUse">
<stop stop-opacity="0"/>
<stop offset="1"/>
</linearGradient>
<linearGradient id="paint6_linear_0_1" x1="2.5" y1="310" x2="2.5" y2="314" gradientUnits="userSpaceOnUse">
<stop/>
<stop offset="1" stop-opacity="0"/>
</linearGradient>
<linearGradient id="paint7_linear_0_1" x1="5" y1="310" x2="1.5" y2="310" gradientUnits="userSpaceOnUse">
<stop/>
<stop offset="1" stop-color="#AEAEAE" stop-opacity="0"/>
</linearGradient>
<linearGradient id="paint8_linear_0_1" x1="2.5" y1="368.5" x2="2.5" y2="374" gradientUnits="userSpaceOnUse">
<stop stop-opacity="0"/>
<stop offset="1"/>
</linearGradient>
<linearGradient id="paint9_linear_0_1" x1="450.5" y1="252" x2="450.5" y2="256" gradientUnits="userSpaceOnUse">
<stop/>
<stop offset="1" stop-opacity="0"/>
</linearGradient>
<linearGradient id="paint10_linear_0_1" x1="448" y1="252" x2="451.5" y2="252" gradientUnits="userSpaceOnUse">
<stop/>
<stop offset="1" stop-color="#AEAEAE" stop-opacity="0"/>
</linearGradient>
<linearGradient id="paint11_linear_0_1" x1="450.5" y1="346.5" x2="450.5" y2="351" gradientUnits="userSpaceOnUse">
<stop stop-opacity="0"/>
<stop offset="1"/>
</linearGradient>
<radialGradient id="paint12_radial_0_1" cx="0" cy="0" r="1" gradientUnits="userSpaceOnUse" gradientTransform="translate(227.649 216.446) rotate(90) scale(371.862 414.868)">
<stop stop-color="#879194"/>
<stop offset="1"/>
</radialGradient>
<linearGradient id="paint13_linear_0_1" x1="226.5" y1="15" x2="226.5" y2="908" gradientUnits="userSpaceOnUse">
<stop stop-color="white"/>
<stop offset="1" stop-color="white" stop-opacity="0"/>
</linearGradient>
<clipPath id="clip0_0_1">
<rect x="3" width="447.329" height="922" rx="75" fill="white"/>
</clipPath>
<clipPath id="clip1_0_1">
<rect x="10" y="7.00002" width="434.204" height="907.782" rx="68" fill="white"/>
</clipPath>
<clipPath id="clip2_0_1">
<rect x="20" y="17" width="414" height="888" rx="59" fill="white"/>
</clipPath>
</defs>
</svg>
